<?xml version="1.0" encoding="UTF-8"?>
<svg width="402px" height="40px" viewBox="0 0 402 40" version="1.1" xmlns="http://www.w3.org/2000/svg" xmlns:xlink="http://www.w3.org/1999/xlink">
    <!-- Generator: Sketch 50.2 (55047) - http://www.bohemiancoding.com/sketch -->
    <title>无忧logo</title>
    <desc>Created with Sketch.</desc>
    <defs></defs>
    <g id="Page-1" stroke="none" stroke-width="1" fill="none" fill-rule="evenodd">
        <g id="重置密码" transform="translate(-150.000000, -96.000000)">
            <g id="无忧logo" transform="translate(150.000000, 96.000000)">
                <g id="QC" transform="translate(100.000000, 10.000000)" fill="#3C3B3B">
                    <path d="M3.06185143,2.45459184 C2.16128,3.34512987 1.48013714,4.42583488 1.01842286,5.69670686 C0.56128,6.97221707 0.328137143,8.39615028 0.328137143,9.97314471 C0.328137143,13.1132189 1.20128,15.5668367 2.94299429,17.3247217 C3.61042286,18.0019017 4.36013714,18.5260204 5.19213714,18.9017161 C6.01956571,19.2820501 6.92928,19.513961 7.92128,19.5928108 L7.92128,18.0993043 C7.47785143,17.9787106 7.16699429,17.7839054 6.99739429,17.5148887 C6.78299429,17.1855751 6.67785143,16.6243506 6.67785143,15.826577 L6.67785143,3.67908163 C6.67785143,3.13641002 6.76882286,2.72360853 6.95670857,2.4453154 C7.14413714,2.16238404 7.46870857,1.93974954 7.92128,1.77741187 L7.92128,0.311734694 C6.95670857,0.353478664 6.07899429,0.552922078 5.28310857,0.910064935 C4.48813714,1.26256957 3.74756571,1.77741187 3.06185143,2.45459184" id="Fill-1"></path>
                    <path d="M16.5703771,18.0342764 C16.4743771,17.9136827 16.3738057,17.8533859 16.2686629,17.8533859 C16.1772343,17.8533859 16.0218057,17.9044063 15.7978057,18.0018089 C15.5463771,18.1224026 15.26752,18.1780612 14.9566629,18.1780612 C14.4085486,18.1780612 13.9738057,18.0110853 13.6400914,17.6771336 C13.8778057,17.4591373 14.1063771,17.2272263 14.3120914,16.986039 C14.5178057,16.754128 14.7143771,16.5083024 14.8880914,16.2532004 C14.9566629,16.160436 15.0206629,16.0630334 15.0800914,15.9656308 C15.10752,15.9238868 15.1349486,15.8821429 15.1623771,15.8403989 C15.23552,15.7198052 15.3040914,15.5992115 15.3726629,15.4739796 C15.4229486,15.3812152 15.4736914,15.2838126 15.52352,15.18641 C15.6149486,15.0055195 15.7022629,14.8153525 15.7840914,14.6251855 C16.3514057,13.2893785 16.6298057,11.7448516 16.6298057,9.9869666 C16.6298057,6.77731911 15.7200914,4.26804267 13.8960914,2.45449907 C13.2103771,1.77731911 12.4656914,1.26247681 11.6656914,0.909972171 C11.4640914,0.817207792 11.2538057,0.738358071 11.04352,0.673423006 C10.4172343,0.464703154 9.74523429,0.344109462 9.02294857,0.311641929 L9.02294857,1.77731911 C9.07780571,1.79587199 9.12809143,1.81906308 9.17837714,1.84225417 C9.37997714,1.9211039 9.53952,2.00459184 9.65837714,2.08807978 C9.77723429,2.18084416 9.88694857,2.29679963 9.97837714,2.44522263 C10.0012343,2.47305195 10.01952,2.50551948 10.0378057,2.53798701 C10.0606629,2.57509276 10.0789486,2.61219852 10.0926629,2.65394249 C10.0972343,2.66321892 10.1022629,2.67713358 10.1063771,2.68641002 C10.2206629,2.9507885 10.2800914,3.28010204 10.2800914,3.67898887 L10.2800914,15.6131262 C10.2709486,15.6084879 10.2663771,15.6084879 10.2618057,15.6084879 L10.2618057,15.8264842 C10.2618057,16.6242579 10.1520914,17.1854824 9.93723429,17.5147959 C9.86409143,17.6307514 9.76352,17.7327922 9.64009143,17.8209184 C9.57609143,17.8812152 9.51209143,17.9229592 9.45723429,17.9554267 C9.36123429,18.0064471 9.21952,18.0528293 9.02294857,18.0992115 L9.02294857,19.6066327 C9.83209143,19.5324212 10.5406629,19.3886364 11.13952,19.1706401 C11.7703771,19.8431818 12.6252343,20.1771336 13.6949486,20.1771336 C14.5086629,20.1771336 15.29952,19.8988404 16.06752,19.3468924 C16.4926629,19.0314935 16.70752,18.7253711 16.70752,18.4378015 C16.70752,18.2940167 16.6618057,18.1595083 16.5703771,18.0342764" id="Fill-3"></path>
                    <path d="M26.9533714,0.296289425 L27.2656,0.310204082 L27.2656,1.98923933 C26.7270857,2.07179963 26.3293714,2.31020408 26.0628571,2.70955473 C25.8004571,3.10380334 25.6688,3.6729128 25.6688,4.41595547 L25.6688,16.4628015 C25.6688,16.6738404 25.7099429,16.8983302 25.7958857,17.1371985 C25.8813714,17.3709647 25.9947429,17.5731911 26.1300571,17.7378479 C26.2795429,17.9215213 26.4331429,18.0546382 26.5963429,18.1325603 C26.7586286,18.2104824 26.9849143,18.2656772 27.2656,18.2930427 L27.2656,19.9859926 C25.4973714,19.9859926 23.9645714,19.5179963 22.6621714,18.5820037 C21.5142857,17.761039 20.6457143,16.6557514 20.0628571,15.2652134 C19.4790857,13.8709647 19.1901714,12.2239332 19.1901714,10.3199443 C19.1901714,8.92523191 19.3798857,7.62235622 19.7552,6.41595547 C20.1350857,5.20955473 20.6818286,4.16363636 21.4054857,3.27820037 C22.1332571,2.37884972 23.0059429,1.65899814 24.0189714,1.11307978 C25.0361143,0.566697588 26.0125714,0.296289425 26.9533714,0.296289425" id="Fill-5"></path>
                    <path d="M33.8395429,14.3570037 C33.984,14.5221243 34.0566857,14.728525 34.0566857,14.9808442 C34.0566857,15.3936456 33.9030857,15.8982839 33.5862857,16.4901206 C33.2699429,17.0819573 32.8672,17.6278757 32.3789714,18.1278757 C31.7773714,18.7382653 31.1584,19.1877087 30.5252571,19.4859462 C29.8921143,19.7795455 29.1780571,19.9493043 28.3862857,19.9859462 L28.3862857,18.2929963 C29.0962286,18.2382653 29.8427429,17.9627551 30.6294857,17.4766698 C31.0454857,17.2057978 31.4203429,16.8481911 31.7458286,16.3982839 C32.0763429,15.9534787 32.3204571,15.4581169 32.4877714,14.9261132 C32.5778286,14.6274119 32.6866286,14.4168367 32.8086857,14.2929963 C32.9307429,14.1691558 33.0934857,14.1046846 33.2923429,14.1046846 C33.5090286,14.1046846 33.6950857,14.1872449 33.8395429,14.3570037" id="Fill-7"></path>
                    <path d="M30.6293029,2.80561224 C29.84256,2.31488868 29.0960457,2.0440167 28.38656,1.98418367 L28.38656,0.296335807 C29.1778743,0.332977737 29.8923886,0.49809833 30.5250743,0.796335807 C31.1582171,1.08993506 31.7776457,1.5440167 32.3787886,2.15440631 C32.8674743,2.65440631 33.26976,3.19568646 33.58656,3.78752319 C33.9029029,4.37935993 34.0565029,4.88353432 34.0565029,5.30143785 C34.0565029,5.54911874 33.9842743,5.7601577 33.83936,5.92527829 C33.6949029,6.09039889 33.5093029,6.17295918 33.29216,6.17295918 C33.09376,6.17295918 32.93056,6.11312616 32.80896,5.9846475 C32.6864457,5.86080705 32.5781029,5.64976809 32.4875886,5.35663265 C32.3202743,4.8195269 32.07616,4.32880334 31.7456457,3.8788961 C31.42016,3.42945269 31.0453029,3.07184601 30.6293029,2.80561224" id="Fill-9"></path>
                </g>
                <g id="无忧" transform="translate(56.000000, 10.000000)" fill="#3C3B3B">
                    <polygon id="Fill-11" points="20.5253555 16.243321 22.1343889 16.243321 22.1343889 4.0744898 20.5253555 4.0744898"></polygon>
                    <polygon id="Fill-13" points="22.9052792 20.0897959 26.1599462 20.0897959 26.1599462 0.268831169 22.9052792 0.268831169"></polygon>
                    <polygon id="Fill-14" points="26.8407087 10.8360853 28.4497421 10.8360853 28.4497421 4.07402597 26.8407087 4.07402597"></polygon>
                    <polygon id="Fill-15" points="36.1250191 0.185528757 36.1250191 4.95222635 41.4530837 4.95222635 41.4530837 6.80473098 37.7884952 6.80473098 37.7884952 18.5009276 41.4324961 18.5009276 41.4324961 20.0899814 34.5132406 20.0899814 34.5132406 7.56818182 31.2869388 20.0899814 28.4499708 20.0899814 31.6913703 6.80473098 29.1536084 6.80473098 29.1536084 4.95222635 31.8354833 4.95222635 31.8354833 0.185528757"></polygon>
                    <path d="M40.864462,2.23872913 C40.864462,3.37230983 39.9581512,4.29160482 38.839102,4.29160482 C37.7209679,4.29160482 36.8137421,3.37230983 36.8137421,2.23872913 C36.8137421,1.1046846 37.7209679,0.18538961 38.839102,0.18538961 C39.9581512,0.18538961 40.864462,1.1046846 40.864462,2.23872913" id="Fill-16"></path>
                    <polygon id="Fill-17" points="12.2701494 18.4818182 12.161264 10.8361781 7.95224849 18.075974 7.95224849 20.0898887 24.7823629 20.0898887 24.7823629 18.5012987"></polygon>
                    <polyline id="Fill-18" points="19.7300345 10.3384045 19.7300345 8.48589981 12.3052397 8.48589981 12.3052397 2.53970315 19.3384131 2.53970315 19.3384131 0.708070501 0.591366674 0.708070501 0.591366674 2.53970315 7.62408253 2.53970315 7.62408253 8.48589981 0.199745234 8.48589981 0.199745234 10.3384045 6.53522853 10.3384045 0.719467145 20.0897959 5.83387845 20.0897959 11.5608845 10.4010204"></polyline>
                </g>
                <g id="图">
                    <path d="M20.8940051,31.5241364 C19.6041582,31.8318636 18.2633418,31.9255 16.9156378,31.7595909 C10.6955357,30.9959545 6.71946429,25.0850455 8.03640306,18.5582273 C9.3542602,12.0295909 15.4655357,7.35959091 21.6893112,8.12413636 C27.9103316,8.88868182 31.8854847,14.7995909 30.5685459,21.3268636 C30.3260969,22.5295909 29.9105357,23.6623182 29.3714541,24.7159545 C30.6433929,26.3055 32.4893112,28.2455 34.981301,30.0182273 C36.493852,27.7082273 37.6101276,25.0936818 38.1822704,22.2632273 C40.3909439,11.3236818 33.728648,1.41822727 23.3010459,0.137318182 C12.8734439,-1.1445 2.63135204,6.68413636 0.422219388,17.6227727 C-1.78507653,28.5600455 4.8767602,38.4655 15.3043622,39.7464091 C20.1326786,40.3405 24.9159949,38.9714091 28.883801,36.2541364 C25.4752806,35.2891364 22.7780357,33.6936818 20.8940051,31.5241364" id="Fill-19" fill="#004EA2"></path>
                    <path d="M26.3015357,22.7401818 L28.71225,21.067 L18.0770969,16.3501818 L16.9080153,29.2606364 L19.9133724,27.1760909 C24.1300561,38.8710909 43.6820969,35.5338182 43.6820969,35.5338182 C33.0868929,32.8515455 27.8104133,25.277 26.3015357,22.7401818" id="Fill-20" fill="#FC6E06"></path>
                </g>
                <text id="工厂与供应链质量管理平台" font-family="MicrosoftYaHei, Microsoft YaHei" font-size="20" font-weight="normal" line-spacing="24" fill="#5C5C5C">
                    <tspan x="162" y="29">工厂与供应链质量管理平台</tspan>
                </text>
                <path d="M147.817352,1 L147.817352,38.2244898" id="Stroke-1" stroke="#E9E9E9" stroke-width="2"></path>
            </g>
        </g>
    </g>
</svg>