<?xml version="1.0" encoding="UTF-8"?>
<svg width="20px" height="20px" viewBox="0 0 20 20" version="1.1" xmlns="http://www.w3.org/2000/svg" xmlns:xlink="http://www.w3.org/1999/xlink">
    <!-- Generator: Sketch 50.2 (55047) - http://www.bohemiancoding.com/sketch -->
    <title>person</title>
    <desc>Created with Sketch.</desc>
    <defs>
        <polygon id="path-1" points="0 0 20 0 20 20 0 20"></polygon>
    </defs>
    <g id="Symbols" stroke="none" stroke-width="1" fill="none" fill-rule="evenodd">
        <g id="head-" transform="translate(-1146.000000, -13.000000)">
            <g id="person">
                <g transform="translate(1146.000000, 13.000000)">
                    <mask id="mask-2" fill="white">
                        <use xlink:href="#path-1"></use>
                    </mask>
                    <g id="Clip-2"></g>
                    <path d="M9.93367347,9.6855102 C9.95979592,9.67693878 9.98755102,9.67204082 10.0169388,9.67204082 L10.0079592,9.67204082 C9.9777551,9.67387755 9.95326531,9.67836735 9.93367347,9.6855102 Z M12.7377551,8.32714286 C12.7404082,8.3144898 12.7446939,8.30102041 12.7493878,8.28816327 C12.7961224,8.09142857 12.8234694,7.8855102 12.8234694,7.6744898 C12.8234694,7.46306122 12.7969388,7.25755102 12.7493878,7.05612245 C12.7446939,7.04163265 12.7416327,7.02857143 12.7377551,7.01469388 C12.4244898,5.79204082 11.2706122,4.81877551 9.9822449,4.81877551 L9.96795918,4.81877551 C8.67897959,4.81877551 7.52714286,5.79204082 7.21265306,7.01469388 C7.21,7.02877551 7.20530612,7.0422449 7.20285714,7.05612245 C7.15387755,7.25693878 7.12816327,7.46346939 7.12816327,7.6744898 C7.12816327,7.88612245 7.15469388,8.09122449 7.20285714,8.28816327 C7.20571429,8.30102041 7.21,8.3144898 7.21265306,8.32714286 C7.52469388,9.52122449 8.66653061,10.4106122 9.94734694,10.4204082 L10.0034694,10.4204082 C11.2830612,10.4089796 12.4234694,9.52040816 12.7371429,8.32714286 L12.7377551,8.32714286 Z M9.97530612,6.74938776 L9.97530612,6.74959184 L9.97530612,6.74938776 Z M9.93367347,9.6855102 C9.95204082,9.6777551 9.97816327,9.67204082 10.0079592,9.67204082 L10.0169388,9.67204082 C9.98877551,9.67387755 9.96020408,9.67755102 9.93367347,9.6855102 Z M15.2477551,16.0822449 L15.1530612,16.0744898 C14.8955102,16.0185714 14.7022449,15.8102041 14.6642857,15.554898 C14.5153061,14.5291837 14.0216327,13.5485714 13.2742857,12.7930612 C12.3720408,11.8810204 11.202449,11.3759184 9.98102041,11.3718367 C8.75306122,11.3740816 7.58142857,11.8783673 6.67571429,12.7930612 C5.93122449,13.5465306 5.43816327,14.5271429 5.28653061,15.5557143 C5.24877551,15.8132653 5.05938776,16.0163265 4.80244898,16.0726531 L4.70367347,16.0818367 L4.63183673,16.0783673 C4.28020408,16.0310204 4.04040816,15.7165306 4.08653061,15.3791837 C4.17061224,14.7471429 4.35612245,14.135102 4.63877551,13.5595918 C4.69346939,13.4477551 4.75183673,13.3371429 4.81346939,13.2289796 C5.08714286,12.7681633 5.41673469,12.3465306 5.79530612,11.9736735 C5.87979592,11.8918367 5.9655102,11.8120408 6.05367347,11.7342857 C6.5444898,11.3034694 7.08918367,10.9620408 7.67959184,10.7122449 C7.54183673,10.6081633 7.40938776,10.492449 7.28591837,10.3697959 C6.56714286,9.64959184 6.17102041,8.69326531 6.17102041,7.67571429 C6.17102041,6.65938776 6.5677551,5.70306122 7.28591837,4.9822449 C7.9922449,4.27714286 8.92877551,3.88081633 9.92265306,3.86734694 L10.0202041,3.86734694 C11.0173469,3.8822449 11.9532653,4.27795918 12.6567347,4.9822449 C13.3767347,5.70102041 13.772449,6.65795918 13.772449,7.67571429 C13.772449,8.69122449 13.375102,9.64755102 12.6579592,10.3685714 C12.5312245,10.4938776 12.4006122,10.6079592 12.2634694,10.7112245 C12.854898,10.9612245 13.4008163,11.3042857 13.8902041,11.7342857 C13.9777551,11.8110204 14.0618367,11.8906122 14.1467347,11.9708163 C14.5277551,12.345102 14.8573469,12.7661224 15.1279592,13.224898 C15.1918367,13.3377551 15.2518367,13.4477551 15.3055102,13.5608163 C15.5853061,14.1285714 15.7714286,14.7402041 15.8579592,15.3781633 C15.8816327,15.5393878 15.84,15.7014286 15.7395918,15.835102 C15.6389796,15.9689796 15.4932653,16.054898 15.3277551,16.0779592 L15.247551,16.082449 L15.2477551,16.0822449 Z M9.97897959,13.0744898 C9.97408163,13.0897959 9.97326531,13.1057143 9.97163265,13.1216327 C9.97183673,13.1063265 9.97408163,13.0893878 9.97897959,13.0744898 Z M9.97530612,6.75102041 L9.97530612,6.74265306 L9.97530612,6.75326531 L9.97530612,6.75102041 Z M9.97530612,0 C4.46673469,0 0,4.46591837 0,9.97530612 C0,15.4842857 4.46673469,19.9506122 9.97530612,19.9506122 C15.4832653,19.9506122 19.9506122,15.4842857 19.9506122,9.97530612 C19.9506122,4.46591837 15.4846939,0 9.97530612,0 Z" id="Fill-1" fill="#FFFFFF" mask="url(#mask-2)"></path>
                </g>
            </g>
        </g>
    </g>
</svg>