<?xml version="1.0" encoding="UTF-8"?>
<svg width="20px" height="21px" viewBox="0 0 20 21" version="1.1" xmlns="http://www.w3.org/2000/svg" xmlns:xlink="http://www.w3.org/1999/xlink">
    <!-- Generator: Sketch 50.2 (55047) - http://www.bohemiancoding.com/sketch -->
    <title>message</title>
    <desc>Created with Sketch.</desc>
    <defs></defs>
    <g id="Symbols" stroke="none" stroke-width="1" fill="none" fill-rule="evenodd">
        <g id="head-" transform="translate(-1042.000000, -12.000000)" fill="#FFFFFF" fill-rule="nonzero">
            <g id="待处理信息">
                <g transform="translate(1042.000000, 5.857143)">
                    <g id="message" transform="translate(0.000000, 7.000000)">
                        <path d="M19.206127,5.70061518 C19.7314664,6.86065813 19.9990184,8.09295967 19.9970654,9.36431988 C19.9970654,10.6356801 19.7314664,11.8660287 19.2041741,13.0260717 C18.6964112,14.1431501 17.9718726,15.1430524 17.0500876,16.0023435 C16.1322085,16.8577287 15.0639534,17.5295381 13.8746164,17.9982424 C12.6462208,18.4806171 11.3416607,18.7266869 9.99804189,18.7266869 C8.92978684,18.7266869 7.88106113,18.5704521 6.87725291,18.2618885 L3.98105137,19.9082121 C3.87363998,19.968753 3.75255805,20 3.63342906,20 C3.52601768,20 3.41665336,19.9746119 3.31705371,19.9238356 C3.1061368,19.8183771 2.9635726,19.613319 2.93623152,19.3789669 L2.48510369,15.5394981 C0.881744648,13.8287277 0.000971289063,11.6453471 0.000971289063,9.36236695 C0.000971289063,8.09295967 0.268523281,6.86065814 0.793862617,5.70061518 C1.30162553,4.58353676 2.02616414,3.58363441 2.94794912,2.72434332 C3.86582824,1.86895811 4.9340833,1.19714871 6.12342027,0.728444492 C7.35181594,0.246069727 8.65637604,0 9.99999482,0 C11.3436136,0 12.6481737,0.246069727 13.8765694,0.728444492 C15.0659064,1.19714871 16.1341614,1.86895811 17.0520405,2.72434332 C17.9757784,3.58363441 18.7003171,4.58548971 19.206127,5.70061518 Z M5.70353939,8.2999707 C5.10984736,8.2999707 4.62942555,8.78039254 4.62942555,9.37408457 C4.62942555,9.9677766 5.11180031,10.4481984 5.70353939,10.4481984 C6.29723143,10.4481984 6.77765324,9.96777658 6.77765326,9.37408457 C6.77765328,8.78039256 6.29723143,8.29997072 5.70353939,8.2999707 Z M14.2964503,8.2999707 C13.7027582,8.2999707 13.2223364,8.78039254 13.2223364,9.37408457 C13.2223364,9.9677766 13.7047112,10.4481984 14.2964503,10.4481984 C14.8881894,10.4481984 15.3686112,9.96777658 15.3705641,9.37408457 C15.3705641,8.78039254 14.8881893,8.29997072 14.2964503,8.2999707 Z M9.99999482,8.2999707 C9.40630279,8.2999707 8.92588098,8.78039254 8.92588096,9.37408457 C8.92588094,9.9677766 9.40825572,10.4481984 9.99999482,10.4481984 C10.5917339,10.4481984 11.0741087,9.96777658 11.0741087,9.37408457 C11.0741087,8.78039256 10.5917339,8.29997072 9.99999482,8.2999707 Z" id="Combined-Shape"></path>
                    </g>
                </g>
            </g>
        </g>
    </g>
</svg>