<?xml version="1.0" encoding="UTF-8"?>
<svg width="14px" height="12px" viewBox="0 0 14 12" version="1.1" xmlns="http://www.w3.org/2000/svg" xmlns:xlink="http://www.w3.org/1999/xlink">
    <!-- Generator: Sketch 50.2 (55047) - http://www.bohemiancoding.com/sketch -->
    <title>客服中心 icon copy</title>
    <desc>Created with Sketch.</desc>
    <defs>
        <polygon id="path-1" points="0.000803278688 0.010967318 14.0008033 0.010967318 14.0008033 14.0109673 0.000803278688 14.0109673"></polygon>
    </defs>
    <g id="Page-1" stroke="none" stroke-width="1" fill="none" fill-rule="evenodd">
        <g id="侧边栏" transform="translate(-21.000000, -347.000000)">
            <g id="侧边栏深色全展开" transform="translate(0.000000, 47.000000)">
                <g id="siderbar-一级导航" transform="translate(0.000000, 1.000000)">
                    <g id="纵向-icon" transform="translate(20.800000, 53.000000)">
                        <g id="客服中心-icon-copy" transform="translate(0.000000, 245.363636)">
                            <g id="Group-4"  transform="scale(1.1)">
                                <mask id="mask-2" fill="white">
                                    <use xlink:href="#path-1"></use>
                                </mask>
                                <g id="Clip-2"></g>
                                <path d="M8.4245459,10.7265852 C10.2072891,9.98414599 11.4063967,8.24829307 11.4063967,6.28566605 C11.4063967,3.62532722 9.22311202,1.4672996 6.52831284,1.4672996 C3.83335301,1.4672996 1.65017541,3.62527359 1.65017541,6.28566605 C1.65017541,6.87984531 1.75889918,7.45871322 1.96844781,8.00156864 C2.02043333,8.13626018 1.95360055,8.28767084 1.81903798,8.33978571 C1.68452896,8.39184695 1.53333852,8.32486319 1.48135301,8.19015824 C1.47021421,8.16135898 1.45934317,8.13249268 1.44878005,8.10347889 C1.42895246,8.10432356 1.40903115,8.10473919 1.38900273,8.10473919 C0.621858197,8.10473919 0,7.49008672 0,6.73182674 C0,6.0345976 0.525786066,5.45874637 1.20685929,5.3706056 C1.64567705,2.8560731 3.86174891,0.944300651 6.52825929,0.944300651 C9.19476967,0.944300651 11.4108951,2.85612673 11.8497262,5.3706056 C12.5307325,5.4588 13.056465,6.0345976 13.056465,6.73182674 C13.056465,7.49008672 12.4346068,8.10473919 11.6674623,8.10473919 C11.6472331,8.10473919 11.6270975,8.10432356 11.6070691,8.10347889 C11.0978975,9.49466574 10.018291,10.6330948 8.61354399,11.2142822 C8.60114672,11.5732406 8.30284918,11.860402 7.9366612,11.860402 C7.5625877,11.860402 7.25936339,11.5607315 7.25936339,11.1909666 C7.25936339,10.8212151 7.5625877,10.5214909 7.9366612,10.5214909 C8.12828333,10.5214909 8.30133634,10.6001526 8.4245459,10.7265852 Z" id="Fill-3" fill="#C0C0C0" mask="url(#mask-2)"></path>
                                <path d="M6.46153846,10.4190331 C4.14194251,10.4190331 2.26153846,8.53926104 2.26153846,6.22044468 C2.26153846,3.90162833 4.14194251,2.02185626 6.46153846,2.02185626 C8.78113441,2.02185626 10.6615385,3.90162833 10.6615385,6.22044468 C10.6615385,8.53926104 8.78113441,10.4190331 6.46153846,10.4190331 Z M6.53338621,7.46562806 C5.90006503,7.46562806 5.32913023,7.35057435 4.83029441,7.15930009 C4.65701234,7.09284864 4.5056273,7.02196528 4.37742893,6.95164943 C4.30301933,6.910803 4.25442942,6.88040125 4.23306974,6.86547062 C4.02625701,6.72089344 3.75559361,6.92436893 3.83477219,7.16478592 C4.21407441,8.31630937 5.29695637,9.10955166 6.53338621,9.10955166 C7.76986979,9.10955166 8.85255025,8.31630937 9.23189277,7.16478592 C9.31108478,6.92431488 9.04035422,6.72089344 8.83360865,6.86547062 C8.81224897,6.8804553 8.76365906,6.91085704 8.68924946,6.95164943 C8.56105109,7.02196528 8.40970635,7.09284864 8.23643771,7.15930009 C7.73765564,7.35057435 7.16677457,7.46562806 6.53338621,7.46562806 Z" id="Combined-Shape" fill="#C0C0C0" mask="url(#mask-2)"></path>
                            </g>
                        </g>
                    </g>
                </g>
            </g>
        </g>
    </g>
</svg>