<?xml version="1.0" encoding="UTF-8"?>
<svg width="14px" height="13px" viewBox="0 0 14 13" version="1.1" xmlns="http://www.w3.org/2000/svg" xmlns:xlink="http://www.w3.org/1999/xlink">
    <!-- Generator: Sketch 50.2 (55047) - http://www.bohemiancoding.com/sketch -->
    <title>设备管理 icon copy</title>
    <desc>Created with Sketch.</desc>
    <defs></defs>
    <g id="Page-1" stroke="none" stroke-width="1" fill="none" fill-rule="evenodd">
        <g id="侧边栏" transform="translate(-21.000000, -508.000000)">
            <g id="侧边栏深色全展开" transform="translate(0.000000, 47.000000)">
                <g id="siderbar-一级导航" transform="translate(0.000000, 1.000000)">
                    <g id="纵向-icon" transform="translate(21.000000, 53.000000)">
                        <g id="设备管理-icon-copy" transform="translate(0.000000, 406.272727)">
                            <rect id="Rectangle-48-Copy-21" fill-opacity="0" fill="#D8D8D8" x="0" y="0" width="14" height="14"></rect>
                            <g id="laptop" transform="translate(0.861328, 1.189453)" fill="#fff" fill-rule="nonzero">
                                <path d="M0.9953125,0.0013671875 L11.2847656,0.0013671875 C11.8275391,0.0013671875 12.2691406,0.441601563 12.2691406,0.985742188 L12.2691406,8.63378906 C12.2691406,9.17792969 11.8289062,9.61816406 11.2847656,9.61816406 L0.9953125,9.61816406 C0.451171875,9.61816406 0.0109375,9.17792969 0.0109375,8.63378906 L0.0109375,0.985742188 C0.0109375,0.441601563 0.451171875,0.0013671875 0.9953125,0.0013671875 Z M11.7769531,11.9857422 L0.503125,11.9857422 C0.231054688,11.9857422 0.0109375,11.765625 0.0109375,11.4935547 C0.0109375,11.2214844 0.231054688,11.0013672 0.503125,11.0013672 L11.7769531,11.0013672 C12.0490234,11.0013672 12.2691406,11.2214844 12.2691406,11.4935547 C12.2691406,11.765625 12.0490234,11.9857422 11.7769531,11.9857422 Z M3.88158544,4.44560182 C3.6818923,4.24590867 3.35898424,4.24590867 3.16070736,4.44560182 C2.96101421,4.64529496 2.96101421,4.96820302 3.16070736,5.1664799 L4.99335223,6.99912477 L5.02309376,7.0288663 C5.2114568,7.21722934 5.51595343,7.21722934 5.70431647,7.0288663 L8.86966522,3.86351755 C9.05802826,3.67515451 9.05802826,3.37065788 8.86966522,3.18229484 L8.83000985,3.14263946 C8.64164681,2.95427643 8.33715018,2.95427643 8.14878714,3.14263946 L5.36299698,5.92701336 L3.88158544,4.44560182 Z" id="Shape"></path>
                            </g>
                        </g>
                    </g>
                </g>
            </g>
        </g>
    </g>
</svg>