<?xml version="1.0" encoding="UTF-8"?>
<svg width="13px" height="10px" viewBox="0 0 13 10" version="1.1" xmlns="http://www.w3.org/2000/svg" xmlns:xlink="http://www.w3.org/1999/xlink">
    <!-- Generator: Sketch 50.2 (55047) - http://www.bohemiancoding.com/sketch -->
    <title>Shape Copy</title>
    <desc>Created with Sketch.</desc>
    <defs></defs>
    <g id="WEB-1.5" stroke="none" stroke-width="1" fill="none" fill-rule="evenodd">
        <g id="文控中心-我的文件" transform="translate(-21.000000, -468.000000)" fill="#C0C0C0" fill-rule="nonzero">
            <g id="siderbar-一级导航" transform="translate(0.000000, 48.000000)">
                <g id="icon" transform="translate(19.000000, 53.000000)">
                    <g id="文控中心-icon-copy" transform="translate(1.181818, 365.000000)">
                        <path d="M12.5412359,5.85188747 L12.5412359,4.40442414 C12.5412359,3.92594374 12.1541236,3.53883145 11.6756432,3.53883145 L6.87881702,3.53883145 L6.57826401,2.60230825 C6.46405386,2.24284684 6.13104112,2 5.75354653,2 L1.86559269,2 C1.38711229,2 1,2.38711229 1,2.86559269 L1,11.1404184 C1,11.1824958 1.00360664,11.2245732 1.0096177,11.2654484 C1.0096177,11.2666506 1.0096177,11.2690551 1.01081991,11.2702573 C1.01322433,11.2822794 1.01442654,11.2943015 1.01683097,11.3063236 C1.01803318,11.3099303 1.01803318,11.3135369 1.01923539,11.3159413 C1.02163982,11.325559 1.02404424,11.3363789 1.02644867,11.3459966 C1.02765088,11.3520077 1.0300553,11.3580188 1.03125751,11.3640298 L1.03486415,11.3784564 C1.03847079,11.3916807 1.04207742,11.4037028 1.04688627,11.4157249 L1.04688627,11.4169271 C1.09136812,11.546766 1.16590527,11.6621784 1.26328444,11.7559509 L1.26568887,11.7583554 C1.27530656,11.7667709 1.28372205,11.7751863 1.29333975,11.7836018 C1.29814859,11.7872085 1.30295744,11.7920173 1.30656408,11.7956239 C1.31137293,11.7992306 1.31497956,11.8028372 1.31978841,11.8064439 C1.32700168,11.8124549 1.33541717,11.818466 1.34383265,11.8256792 C1.34623708,11.8268815 1.3486415,11.8292859 1.35104592,11.8304881 C1.36066362,11.8377014 1.37148353,11.8449146 1.38110123,11.8521279 C1.38230344,11.8521279 1.38230344,11.8533301 1.38350565,11.8533301 C1.49651358,11.9290695 1.62875691,11.9807646 1.77422457,11.9951912 C1.776629,11.9951912 1.77783121,11.9951912 1.78023563,11.9963934 C1.79345997,11.9975956 1.80548209,11.9987978 1.81870642,11.9987978 L1.82591969,11.9987978 C1.83914403,11.9987978 1.85236836,12 1.86559269,12 L11.3390238,12 C11.7357538,12 12.0819909,11.7295023 12.17937,11.3447944 L13.2854051,6.920654 C13.4128396,6.40851166 13.0533782,5.90839144 12.5412359,5.85188747 Z M1.86559269,2.86559269 L5.7511421,2.86559269 L6.24645347,4.40442414 L11.6756432,4.40442414 L11.6756432,5.84707862 L2.9716278,5.84707862 C2.57489781,5.84707862 2.22866074,6.11757634 2.13128156,6.5022842 L1.86559269,7.56984852 L1.86559269,2.86559269 Z" id="Shape-Copy"></path>
                    </g>
                </g>
            </g>
        </g>
    </g>
</svg>