<?xml version="1.0" encoding="UTF-8"?>
<svg width="14px" height="12px" viewBox="0 0 14 12" version="1.1" xmlns="http://www.w3.org/2000/svg" xmlns:xlink="http://www.w3.org/1999/xlink">
    <!-- Generator: Sketch 50.2 (55047) - http://www.bohemiancoding.com/sketch -->
    <title>来料控制 icon copy</title>
    <desc>Created with Sketch.</desc>
    <defs>
        <polygon id="path-1" points="0 0 14 0 14 14 0 14"></polygon>
    </defs>
    <g id="Page-1" stroke="none" stroke-width="1" fill="none" fill-rule="evenodd">
        <g id="侧边栏" transform="translate(-21.000000, -225.000000)">
            <g id="侧边栏深色全展开" transform="translate(0.000000, 47.000000)">
                <g id="siderbar-一级导航" transform="translate(0.000000, 1.000000)">
                    <g id="纵向-icon" transform="translate(21.000000, 53.000000)">
                        <g id="来料控制-icon-copy" transform="translate(0.000000, 123.181818)scale(1.1)">
                            <mask id="mask-2" fill="white">
                                <use xlink:href="#path-1"></use>
                            </mask>
                            <g id="Clip-2"></g>
                            <path d="M11.006372,6.62305316 C10.9958793,6.59307048 10.9958793,6.58281984 10.9853353,6.5724856 C10.7884852,6.16672438 10.5811423,5.76002673 10.3842752,5.35419863 C10.3527798,5.2831298 10.3011705,5.2831298 10.2390172,5.30279496 C9.81293309,5.42526746 9.3877034,5.53656961 8.96160215,5.64872458 C8.90032041,5.66924257 8.85833233,5.70007808 8.84785667,5.76002673 C8.7550625,6.06482004 8.66148224,6.359346 8.56781652,6.66413931 C8.52669999,6.80627697 8.48471191,6.95866526 8.43311972,7.11105355 C9.30459879,6.94834774 10.1559126,6.78569209 11.006372,6.62305316 Z M4.74946473,1.96287766 L4.75040464,1.96287766 C5.10298829,1.8815582 5.42494816,1.80023874 5.75745205,1.73856771 C5.78809292,1.73856771 5.8397022,1.77025605 5.87119753,1.78990449 C6.87739049,2.55194629 7.88452334,3.30280103 8.8907163,4.06477594 C9.18116375,4.28823306 9.47167956,4.50143955 9.78316377,4.73514731 C9.72107883,4.74456184 9.6790224,4.76513 9.63790587,4.77539735 C9.34744133,4.85671682 9.05692552,4.93810317 8.76562361,5.009172 C8.71394597,5.01942263 8.64131702,5.009172 8.61074451,4.97833649 L4.81074648,2.02369586 C4.80112528,2.00311098 4.7801056,1.99286035 4.74946473,1.96287766 Z M6.1818102,1.14010127 C6.45130633,1.33357571 9.1802922,3.414956 10.6948878,4.56225775 C10.7579127,4.61359453 10.8086333,4.6735599 10.8401457,4.73514731 C11.1621056,5.38503414 11.4946095,6.03483736 11.8052221,6.69497482 C11.9189676,6.9380971 11.8262418,7.1513036 11.5147063,7.20178755 C11.0685082,7.28310701 10.6117832,7.37476072 10.1663883,7.45608018 C9.6064618,7.55798452 9.04557831,7.65896915 8.49518757,7.77112413 C8.33945401,7.80110681 8.19426446,7.82169169 8.03846254,7.86192501 C7.90374865,7.90301115 7.81102284,7.85251048 7.71737422,7.78144165 L6.18095574,6.58281984 C5.10213383,5.7403114 4.03291604,4.89701702 2.95402577,4.05450858 C2.7773409,3.91237092 2.74670002,3.80021595 2.82980463,3.59732698 C3.08880802,2.98860991 3.34868295,2.36872249 3.59714233,1.75998869 C3.6522207,1.58375472 3.80494657,1.45357334 3.99092796,1.4243766 C4.42837641,1.33357571 5.25786739,1.12985064 5.69357275,1.03904976 C5.83883065,1.00828114 5.87994718,0.987712981 5.98408856,1.00828114 C6.06719317,1.03904976 6.11880244,1.09986796 6.18095574,1.14010127 L6.1818102,1.14010127 Z M5.73556083,11.212929 L5.73468928,11.2137819 C5.87994718,10.6341947 6.01560098,10.0751087 6.15031487,9.52714295 C6.16412291,9.48349833 6.19924114,9.4494689 6.24396349,9.43640896 C6.73628525,9.28343539 7.23099949,9.13783626 7.72784988,8.99974534 C7.95535793,9.55797846 8.17409925,10.1161949 8.4016073,10.694946 C7.52050704,10.8679024 6.63768077,11.0408756 5.73556083,11.212929 Z M1.96799803,5.32336312 C2.15524402,5.48601877 2.32147033,5.63840706 2.4973691,5.79079535 C3.09928368,6.31911268 3.71175936,6.84651029 4.31375938,7.38501135 C4.8326377,7.84219296 5.36106886,8.29852174 5.87994718,8.76602086 C5.93242801,8.80625418 5.97354454,8.81735764 6.04617349,8.79600355 C6.60616835,8.63329773 7.16705183,8.46208038 7.73752234,8.30883926 C8.04900656,8.21720227 8.18372045,8.29852174 8.29746593,8.57339925 C8.58885328,9.31400335 8.87930074,10.0459789 9.16981654,10.786583 C9.27395792,11.0502901 9.16981654,11.2437646 8.88984475,11.3045828 C7.893273,11.4972044 6.90803136,11.6898427 5.9114596,11.8833171 C5.71459242,11.9235505 5.52734644,11.9646366 5.33049635,11.9946193 C5.22635497,12.0152042 5.13362916,11.9749708 5.0504562,11.903902 L3.15096131,10.289168 C2.34069564,9.59821178 1.54184552,8.90815852 0.732502662,8.22751979 C0.535652569,8.06481398 0.348406586,7.90215833 0.151539404,7.73089081 C-0.0146698162,7.58790032 -0.0357065785,7.47666506 0.0473980316,7.2737092 C0.348406586,6.55198433 0.649398052,5.8310454 0.939913859,5.12047415 C0.988378732,4.990159 1.09557906,4.88905732 1.23036131,4.84646618 C1.64596981,4.72489668 2.06072384,4.59300965 2.47546079,4.47060404 C2.63121144,4.41926726 2.77646935,4.43037072 2.89108638,4.56225775 C3.0572956,4.74456184 2.97419099,5.01942263 2.72479171,5.11015663 C2.52794162,5.18122546 2.32059878,5.23262912 2.12287714,5.29338043 C2.08174352,5.2831298 2.02921142,5.30363107 1.96712649,5.32336312 L1.96799803,5.32336312 Z M10.5706667,10.289168 C11.4316017,10.1161949 12.2829156,9.93382388 13.1342978,9.7609176 C12.8542747,9.26343578 12.5830355,8.78660574 12.314428,8.30883926 C12.3039353,8.27885657 12.2409275,8.25743559 12.199811,8.26860594 C11.8156978,8.33967477 11.421109,8.42099423 11.0378674,8.49122696 C10.9547628,8.51172823 10.9241219,8.54256374 10.9031022,8.6238832 C10.8401457,8.93899403 10.7675168,9.26343578 10.7053635,9.57854662 C10.6642469,9.80116764 10.6222589,10.0348754 10.5706667,10.289168 Z M12.46929,7.53741637 C12.6250236,7.53741637 12.7186893,7.61873583 12.7913182,7.75062286 C13.1027854,8.29852174 13.4142696,8.85760768 13.7248822,9.40557344 C13.7975112,9.53746047 13.8701401,9.65986608 13.9436406,9.79083339 C14.0783374,10.045126 13.9637204,10.2788505 13.6837657,10.3302542 C12.8324348,10.5014548 11.9819925,10.6846786 11.1305932,10.8576518 C10.8095048,10.9287206 10.477001,11.0100401 10.1559126,11.0502901 C9.958191,11.0811089 9.7507798,10.8781698 9.79276788,10.6546959 L10.2285416,8.56313189 C10.2591825,8.43126159 10.2801509,8.30883926 10.3011705,8.17696895 C10.3317431,8.00406267 10.4463601,7.91326179 10.6222589,7.87217564 C11.0894766,7.78144165 11.5566944,7.68980466 12.0335847,7.59821784 C12.1788426,7.58790032 12.3240321,7.56738233 12.46929,7.53741637 Z" id="Fill-1" fill="#C0C0C0" mask="url(#mask-2)"></path>
                        </g>
                    </g>
                </g>
            </g>
        </g>
    </g>
</svg>