<?xml version="1.0" encoding="UTF-8"?>
<svg width="12px" height="13px" viewBox="0 0 12 13" version="1.1" xmlns="http://www.w3.org/2000/svg" xmlns:xlink="http://www.w3.org/1999/xlink">
    <!-- Generator: Sketch 50.2 (55047) - http://www.bohemiancoding.com/sketch -->
    <title>监控中心 icon copy</title>
    <desc>Created with Sketch.</desc>
    <defs></defs>
    <g id="Page-1" stroke="none" stroke-width="1" fill="none" fill-rule="evenodd">
        <g id="侧边栏" transform="translate(-22.000000, -102.000000)">
            <g id="侧边栏深色全展开" transform="translate(0.000000, 47.000000)">
                <g id="siderbar-一级导航" transform="translate(0.000000, 1.000000)">
                    <g id="纵向-icon" transform="translate(22.500000, 53.000000)scale(.85)">
                        <g id="监控中心-icon-copy">
                            <rect id="Rectangle-35-Copy-15" fill="#D8D8D8" opacity="0" x="0" y="0" width="14" height="14"></rect>
                            <g id="areachart" transform="translate(1.000000, 1.000000)" fill="#fff" fill-rule="nonzero">
                                <path d="M11.5178571,12.4229403 L0.482142857,12.4229403 C0.215625,12.4229403 0,12.1999645 0,11.9243608 L0,0.498579545 C0,0.222975852 0.215625,0 0.482142857,0 C0.748660714,0 0.964285714,0.222975852 0.964285714,0.498579545 L0.964285714,11.4257812 L11.5178571,11.4257812 C11.784375,11.4257812 12,11.6487571 12,11.9243608 C12,12.1999645 11.784375,12.4229403 11.5178571,12.4229403 Z M1.734375,10.2042614 L3.29732143,7.3125 C3.36964286,7.17816051 3.53035714,7.12553267 3.66428571,7.18924006 L5.15357143,7.90525568 L6.740625,5.53977273 C6.82098214,5.41928267 6.97633929,5.37911932 7.10223214,5.44559659 L8.56875,6.21839489 L10.715625,2.73941761 C10.8401786,2.53721591 11.1428571,2.62862216 11.1428571,2.86821733 L11.1428571,10.0713068 C11.1428571,10.3662997 10.9111607,10.6058949 10.6258929,10.6058949 L1.97410714,10.6058949 C1.77321429,10.6072798 1.64464286,10.3884588 1.734375,10.2042614 Z" id="Shape"></path>
                            </g>
                        </g>
                    </g>
                </g>
            </g>
        </g>
    </g>
</svg>