<?xml version="1.0" encoding="UTF-8"?>
<svg width="12px" height="11px" viewBox="0 0 12 11" version="1.1" xmlns="http://www.w3.org/2000/svg" xmlns:xlink="http://www.w3.org/1999/xlink">
    <!-- Generator: Sketch 50.2 (55047) - http://www.bohemiancoding.com/sketch -->
    <title>出货控制 icon copy</title>
    <desc>Created with Sketch.</desc>
    <defs></defs>
    <g id="Page-1" stroke="none" stroke-width="1" fill="none" fill-rule="evenodd">
        <g id="侧边栏" transform="translate(-22.000000, -307.000000)">
            <g id="侧边栏深色全展开" transform="translate(0.000000, 47.000000)">
                <g id="siderbar-一级导航" transform="translate(0.000000, 1.000000)">
                    <g id="纵向-icon" transform="translate(21.000000, 53.000000)">
                        <g id="出货控制-icon-copy" transform="translate(0.000000, 204.636364)">
                            <rect id="Rectangle-39" x="0" y="0" width="14" height="14"></rect>
                            <path d="M12.1023438,6.10175781 L10.565625,2.19296875 C10.4972656,1.97285156 10.2935547,1.82109375 10.0625,1.82109375 L3.84453125,1.82109375 C3.61210938,1.82109375 3.40566406,1.97558594 3.34003906,2.1984375 L1.90585938,6.05664063 C1.88125,6.14414063 1.87578125,6.2125 1.88535156,6.27949219 C1.88398438,6.30136719 1.88261719,6.32324219 1.88261719,6.34511719 L1.88261719,11.3476562 C1.88261719,11.8056641 2.25585938,12.1789062 2.71386719,12.1789062 L11.2888672,12.1789062 C11.746875,12.1789062 12.1201172,11.8056641 12.1214844,11.3476562 L12.1214844,6.34511719 C12.1214844,6.32734375 12.1214844,6.30957031 12.1201172,6.29453125 C12.1255859,6.22753906 12.1201172,6.16328125 12.1023438,6.10175781 Z M8.05820312,5.51386719 L8.05410156,5.72851563 C8.04316406,6.34238281 7.61933594,6.75527344 7,6.75527344 C6.69785156,6.75527344 6.43808594,6.65820313 6.25078125,6.47363281 C6.06347656,6.2890625 5.9609375,6.03203125 5.95546875,5.72851563 L5.95136719,5.51386719 L3.13769531,5.51386719 L4.22460938,2.87109375 L9.68242187,2.87109375 L10.7994141,5.51386719 L8.05820312,5.51386719 Z" id="Shape" fill="#C0C0C0" fill-rule="nonzero"></path>
                        </g>
                    </g>
                </g>
            </g>
        </g>
    </g>
</svg>