<?xml version="1.0" encoding="UTF-8"?>
<svg width="13px" height="11px" viewBox="0 0 13 11" version="1.1" xmlns="http://www.w3.org/2000/svg" xmlns:xlink="http://www.w3.org/1999/xlink">
    <!-- Generator: Sketch 50.2 (55047) - http://www.bohemiancoding.com/sketch -->
    <title>过程管理 icon copy</title>
    <desc>Created with Sketch.</desc>
    <defs>
        <polygon id="path-1" points="9.9475983e-14 0 14 0 14 14 9.9475983e-14 14"></polygon>
    </defs>
    <g id="Page-1" stroke="none" stroke-width="1" fill="none" fill-rule="evenodd">
        <g id="侧边栏" transform="translate(-22.000000, -265.000000)">
            <g id="侧边栏深色全展开" transform="translate(0.000000, 47.000000)">
                <g id="siderbar-一级导航" transform="translate(0.000000, 1.000000)">
                    <g id="纵向-icon" transform="translate(21.000000, 53.000000)">
                        <g id="过程管理-icon-copy" transform="translate(0.000000, 162.909091)scale(1.1)">
                            <mask id="mask-2" fill="white">
                                <use xlink:href="#path-1"></use>
                            </mask>
                            <g id="Clip-2"></g>
                            <path d="M10.4444444,12 L13.4444793,12 L13.4444793,9 L10.4444444,9 L10.4444444,12 Z M8.44444444,9.61543084 L4.44444444,9.61543084 C3.75413291,9.61543084 2.99997907,9.04137407 2.99997907,8.33338341 C2.99997907,7.62529259 3.75413291,7 4.44444444,7 L5.44444444,7 L5.44444444,8 L8.44444444,8 L8.44444444,5 L5.44444444,5 L5.44444444,6.02561791 L4.44444444,6 C4.3609094,6.00008013 4.08296584,6.03048569 3.99995815,6.03994079 C2.87654175,6.16796524 2,7.14740941 2,8.33338341 C2,9.51925725 2.87654175,10.4987014 3.99995815,10.626806 C4.08296584,10.6362611 4.16644229,10.6410488 4.24997733,10.6410488 L8.44444444,10.6410488 L8.44444444,11.6666667 L9.99996512,10.1281897 L8.44444444,8.58971277 L8.44444444,9.61543084 Z" id="Fill-1" fill="#fff" mask="url(#mask-2)"></path>
                            <path d="M9.7435204,8.09082705 L10.3570001,8.66666667 L10.3570001,7.64104875 C11.6310748,7.63986687 12.3321514,6.60735795 12.3333333,5.33328325 C12.3333333,4.14740941 11.4342375,3.16796524 10.2819973,3.03986066 C10.1968614,3.03040556 10.1112647,3.02561791 10.0255678,3.02561791 L4.44444444,3.02561791 L4.44444444,2 L1.44444444,2 L1.44444444,5 L4.44444444,5 L4.44444444,4 C6.42676565,4 7.8080883,4 8.58841242,4 C9.57444696,4 10.0534988,4 10.0255678,4 C10.7336587,4 11.3076153,4.62529259 11.3076153,5.33328325 C11.3076153,6.04137407 11.065091,6.58296001 10.3570001,6.58296001 L10.3570001,5.58971277 L9.26425502,6.61533068 L9.17018479,6.7036918 L8.71790249,7.12818972 L9.26425502,7.64104875 L9.7435204,8.09082705 Z" id="Fill-3" fill="#fff" mask="url(#mask-2)"></path>
                        </g>
                    </g>
                </g>
            </g>
        </g>
    </g>
</svg>