<?xml version="1.0" encoding="UTF-8"?>
<svg width="12px" height="11px" viewBox="0 0 12 11" version="1.1" xmlns="http://www.w3.org/2000/svg" xmlns:xlink="http://www.w3.org/1999/xlink">
    <!-- Generator: Sketch 50.2 (55047) - http://www.bohemiancoding.com/sketch -->
    <title>产品资料icon copy</title>
    <desc>Created with Sketch.</desc>
    <defs></defs>
    <g id="Page-1" stroke="none" stroke-width="1" fill="none" fill-rule="evenodd">
        <g id="侧边栏" transform="translate(-22.000000, -185.000000)">
            <g id="侧边栏深色全展开" transform="translate(0.000000, 47.000000)">
                <g id="siderbar-一级导航" transform="translate(0.000000, 1.000000)">
                    <g id="纵向-icon" transform="translate(20.500000, 53.000000)">
                        <g id="产品资料icon-copy" transform="translate(2.00000, 83.454545)">
                            <g id="appstore" transform="translate(0.750000, 1.10000)scale(.9)" fill="#C0C0C0" fill-rule="nonzero">
                                <path d="M3.9140625,0 L0.84375,0 C0.37734375,0 0,0.37734375 0,0.84375 L0,3.9140625 C0,4.38046875 0.37734375,4.7578125 0.84375,4.7578125 L3.9140625,4.7578125 C4.38046875,4.7578125 4.7578125,4.38046875 4.7578125,3.9140625 L4.7578125,0.84375 C4.7578125,0.37734375 4.38046875,0 3.9140625,0 Z M9.65625,0 L6.5859375,0 C6.11953125,0 5.7421875,0.37734375 5.7421875,0.84375 L5.7421875,3.9140625 C5.7421875,4.38046875 6.11953125,4.7578125 6.5859375,4.7578125 L9.65625,4.7578125 C10.1226562,4.7578125 10.5,4.38046875 10.5,3.9140625 L10.5,0.84375 C10.5,0.37734375 10.1226562,0 9.65625,0 Z M3.9140625,5.7421875 L0.84375,5.7421875 C0.37734375,5.7421875 0,6.11953125 0,6.5859375 L0,9.65625 C0,10.1226562 0.37734375,10.5 0.84375,10.5 L3.9140625,10.5 C4.38046875,10.5 4.7578125,10.1226562 4.7578125,9.65625 L4.7578125,6.5859375 C4.7578125,6.11953125 4.38046875,5.7421875 3.9140625,5.7421875 Z M9.65625,5.7421875 L6.5859375,5.7421875 C6.11953125,5.7421875 5.7421875,6.11953125 5.7421875,6.5859375 L5.7421875,9.65625 C5.7421875,10.1226562 6.11953125,10.5 6.5859375,10.5 L9.65625,10.5 C10.1226562,10.5 10.5,10.1226562 10.5,9.65625 L10.5,6.5859375 C10.5,6.11953125 10.1226562,5.7421875 9.65625,5.7421875 Z" id="Shape"></path>
                            </g>
                            <rect id="Rectangle-32" x="0" y="0" width="12" height="12"></rect>
                        </g>
                    </g>
                </g>
            </g>
        </g>
    </g>
</svg>