<?xml version="1.0" encoding="UTF-8"?>
<svg width="11px" height="13px" viewBox="0 0 11 13" version="1.1" xmlns="http://www.w3.org/2000/svg" xmlns:xlink="http://www.w3.org/1999/xlink">
    <!-- Generator: Sketch 50.2 (55047) - http://www.bohemiancoding.com/sketch -->
    <title>质量规划 icon copy</title>
    <desc>Created with Sketch.</desc>
    <defs>
        <polygon id="path-1" points="0 0 14 0 14 14 0 14"></polygon>
    </defs>
    <g id="Page-1" stroke="none" stroke-width="1" fill="none" fill-rule="evenodd">
        <g id="侧边栏" transform="translate(-23.000000, -143.000000)">
            <g id="侧边栏深色全展开" transform="translate(0.000000, 47.000000)">
                <g id="siderbar-一级导航" transform="translate(0.000000, 1.000000)">
                    <g id="纵向-icon" transform="translate(20.500000, 53.000000)">
                        <g id="质量规划-icon-copy" transform="translate(2.00000, 42.027273)">
                            <g id="Page-1" transform="scale(.85)">
                                <mask id="mask-2" fill="white">
                                    <use xlink:href="#path-1"></use>
                                </mask>
                                <g id="Clip-2"></g>
                                <path d="M8.59053661,8.91452746 C9.13706216,8.44385487 9.49049351,7.74888857 9.49049351,6.96816291 C9.49049351,5.54553277 8.34428403,4.40140542 6.91906494,4.40140542 C5.49413318,4.40140542 4.34763636,5.55643195 4.34763636,6.96816291 C4.34763636,8.37989388 5.49413318,9.53492041 6.91906494,9.53492041 C7.24060126,9.53492041 7.54058689,9.47038577 7.82994085,9.3745877 L8.6120873,10.1550265 L9.22269024,9.54553277 L8.59053661,8.91452746 Z M12.2857143,3.18213108 L12.2857143,6.45475405 C12.2857143,9.48157178 10.0889351,12.3047469 7.14846753,13 C4.19646753,12.3153592 2,9.48157178 2,6.45475405 L2,3.18213108 L7.14846753,1 L12.2857143,3.18213108 Z M8.70597403,6.9711338 C8.70597403,7.51732624 8.44880243,7.99944665 8.05255704,8.31032524 L7.47384913,7.73166582 L6.86295884,8.34221759 L7.19541419,8.67464508 C7.13104945,8.68527586 7.05605305,8.68527586 6.99168831,8.68527586 C6.04891737,8.68527586 5.2774026,7.91382574 5.2774026,6.9711338 C5.2774026,6.02844187 6.04891737,5.25670443 6.99168831,5.25670443 C7.93445925,5.25670443 8.70597403,6.02844187 8.70597403,6.9711338 Z" id="Fill-1" fill="#C0C0C0" mask="url(#mask-2)"></path>
                            </g>
                        </g>
                    </g>
                </g>
            </g>
        </g>
    </g>
</svg>