<?xml version="1.0" encoding="UTF-8"?>
<svg width="14px" height="14px" viewBox="0 0 14 14" version="1.1" xmlns="http://www.w3.org/2000/svg" xmlns:xlink="http://www.w3.org/1999/xlink">
    <!-- Generator: Sketch 50.2 (55047) - http://www.bohemiancoding.com/sketch -->
    <title>系统设置 icon</title>
    <desc>Created with Sketch.</desc>
    <defs></defs>
    <g id="Page-1" stroke="none" stroke-width="1" fill="none" fill-rule="evenodd">
        <g id="侧边栏" transform="translate(-21.000000, -546.000000)">
            <g id="侧边栏深色全展开" transform="translate(0.000000, 47.000000)">
                <g id="siderbar-一级导航" transform="translate(0.000000, 1.000000)">
                    <g id="纵向-icon" transform="translate(21.000000, 53.000000)">
                        <g id="系统设置-icon" transform="translate(0.500000, 445.000000)scale(.95)">
                            <rect id="Rectangle-43-Copy-8" x="0" y="0" width="14" height="14"></rect>
                            <g id="setting" fill="#fff" fill-rule="nonzero">
                                <path d="M13.5098011,5.73622159 C13.5754261,6.12997159 13.6052557,6.4834517 13.6007812,6.81306818 C13.6007812,7.14566761 13.5709517,7.49765625 13.5083097,7.88991477 L13.4516335,8.24786932 L12.3583807,8.61328125 C12.2629261,8.91008523 12.143608,9.19794034 12.0019176,9.47386364 L12.5179687,10.5044744 L12.306179,10.7997869 C12.0794744,11.1115057 11.8527699,11.3829545 11.6096591,11.6260653 C11.3754972,11.8647017 11.1055398,12.0928977 10.7848722,12.3240767 L10.4910511,12.5358665 L9.46044034,12.0198153 C9.18153409,12.1600142 8.89367898,12.2793324 8.60134943,12.3747869 L8.23742898,13.4695313 L7.87947443,13.5262074 C7.48572443,13.5888494 7.1337358,13.618679 6.80113636,13.618679 C6.46853693,13.618679 6.1165483,13.5888494 5.72428977,13.5262074 L5.36633523,13.4695313 L5.00241477,12.3747869 C4.70710227,12.2808239 4.41924716,12.1600142 4.14183239,12.0183239 L3.11271307,12.534375 L2.81889205,12.3225852 C2.49524148,12.0854403 2.22528409,11.8572443 1.99410511,11.6245739 C1.74651989,11.3754972 1.51832386,11.1055398 1.29758523,10.7982955 L1.08579545,10.5059659 L1.59886364,9.47833807 C1.4571733,9.20241477 1.33785511,8.91306818 1.24240057,8.61775568 L0.149147727,8.25234375 L0.0924715909,7.8943892 C0.0298295455,7.50213068 -1.59872116e-14,7.15014205 -1.59872116e-14,6.81605114 C-1.59872116e-14,6.4834517 0.0298295455,6.13146307 0.0924715909,5.73622159 L0.149147727,5.37826705 L1.24240057,5.01583807 C1.33785511,4.72052557 1.4571733,4.43267045 1.59737216,4.15674716 L1.08132102,3.12613636 L1.2931108,2.83082386 C1.7196733,2.24318182 2.23274148,1.73160511 2.81740057,1.30802557 L3.11122159,1.0962358 L4.14034091,1.61377841 C4.4102983,1.4765625 4.69964489,1.35724432 5.0009233,1.25880682 L5.36484375,0.1640625 L5.7227983,0.107386364 C6.12698864,0.0432528409 6.47002841,0.0134232955 6.80113636,0.0134232955 C7.14119318,0.0134232955 7.48274148,0.0432528409 7.87798295,0.105894886 L8.23295455,0.161079545 L8.596875,1.25134943 C8.8921875,1.34680398 9.18004261,1.46612216 9.45745739,1.6078125 L10.4880682,1.09176136 L10.7818892,1.30355114 C11.3650568,1.72713068 11.878125,2.24019886 12.3076705,2.82634943 L12.5194602,3.12166193 L12.0034091,4.15227273 C12.1450994,4.42819602 12.2644176,4.71754261 12.3598722,5.01285511 L13.453125,5.37826705 L13.5098011,5.73622159 Z M6.80411932,4.21640625 C5.37080966,4.21640625 4.20447443,5.38274148 4.20447443,6.81605114 C4.20447443,8.2493608 5.37080966,9.41569602 6.80411932,9.41569602 C8.23742898,9.41569602 9.4037642,8.2493608 9.4037642,6.81605114 C9.4037642,5.38274148 8.23742898,4.21640625 6.80411932,4.21640625 Z M7.88245739,7.8943892 C7.59460227,8.18224432 7.21129261,8.34183239 6.80411932,8.34183239 C6.39694602,8.34183239 6.01363636,8.1837358 5.72578125,7.8943892 C5.43792614,7.60653409 5.27833807,7.22322443 5.27833807,6.81605114 C5.27833807,6.40887784 5.43643466,6.02556818 5.72578125,5.73771307 C6.01363636,5.44985795 6.39694602,5.29026989 6.80411932,5.29026989 C7.21129261,5.29026989 7.59460227,5.44836648 7.88245739,5.73771307 C8.1703125,6.02705966 8.32990057,6.40887784 8.32990057,6.81605114 C8.32990057,7.22322443 8.1703125,7.60653409 7.88245739,7.8943892 Z" id="Shape"></path>
                            </g>
                        </g>
                    </g>
                </g>
            </g>
        </g>
    </g>
</svg>