<?xml version="1.0" encoding="UTF-8"?>
<svg width="14px" height="12px" viewBox="0 0 14 12" version="1.1" xmlns="http://www.w3.org/2000/svg" xmlns:xlink="http://www.w3.org/1999/xlink">
    <!-- Generator: Sketch 50.2 (55047) - http://www.bohemiancoding.com/sketch -->
    <title>addfolder_icon</title>
    <desc>Created with Sketch.</desc>
    <defs></defs>
    <g id="Page-1" stroke="none" stroke-width="1" fill="none" fill-rule="evenodd">
        <g id="文控中心-回收站" transform="translate(-411.000000, -198.000000)">
            <g id="操作button" transform="translate(291.000000, 187.000000)">
                <g id="addfolder_button-icon" transform="translate(106.000000, 0.000000)">
                    <g id="addfolder_icon" transform="translate(14.000000, 10.000000)">
                        <rect id="Rectangle-37-Copy-24" x="0" y="0" width="14" height="14"></rect>
                        <g id="addfolder" transform="translate(0.000000, 1.166667)" fill="#418FEE" fill-rule="nonzero">
                            <path d="M13.5078125,8.07692308 L11.375,8.07692308 L11.375,5.88942308 C11.375,5.6103766 11.1548828,5.38461538 10.8828125,5.38461538 C10.6107422,5.38461538 10.390625,5.6103766 10.390625,5.88942308 L10.390625,8.07692308 L8.3671875,8.07692308 C8.09511719,8.07692308 7.875,8.30268429 7.875,8.58173077 C7.875,8.86077724 8.09511719,9.08653846 8.3671875,9.08653846 L10.390625,9.08653846 L10.390625,11.161859 C10.390625,11.4409054 10.6107422,11.6666667 10.8828125,11.6666667 C11.1548828,11.6666667 11.375,11.4409054 11.375,11.161859 L11.375,9.08653846 L13.5078125,9.08653846 C13.7798828,9.08653846 14,8.86077724 14,8.58173077 C14,8.30268429 13.7798828,8.07692308 13.5078125,8.07692308 Z M13.015625,1.79487179 L6.68554688,1.79487179 L6.34375,0.702524038 C6.21386719,0.283253205 5.83515625,0 5.40585937,0 L0.984375,0 C0.440234375,0 0,0.451522436 0,1.00961538 L0,10.6570513 C0,11.2151442 0.440234375,11.6666667 0.984375,11.6666667 L7.3828125,11.6666667 C7.65488281,11.6666667 7.875,11.4409054 7.875,11.161859 C7.875,10.8828125 7.65488281,10.6570513 7.3828125,10.6570513 L0.984375,10.6570513 L0.984375,2.80448718 L13.015625,2.80448718 L13.015625,4.87980769 C13.015625,5.15885417 13.2357422,5.38461538 13.5078125,5.38461538 C13.7798828,5.38461538 14,5.15885417 14,4.87980769 L14,2.80448718 C14,2.24639423 13.5597656,1.79487179 13.015625,1.79487179 Z M0.984375,1.79487179 L0.984375,1.00961538 L5.40585937,1.00961538 L5.65058594,1.79487179 L0.984375,1.79487179 Z" id="Shape"></path>
                        </g>
                    </g>
                </g>
            </g>
        </g>
    </g>
</svg>