<?xml version="1.0" encoding="UTF-8"?>
<svg width="16px" height="16px" viewBox="0 0 16 16" version="1.1" xmlns="http://www.w3.org/2000/svg" xmlns:xlink="http://www.w3.org/1999/xlink">
    <!-- Generator: Sketch 50.2 (55047) - http://www.bohemiancoding.com/sketch -->
    <title>close-circle copy</title>
    <desc>Created with Sketch.</desc>
    <defs></defs>
    <g id="WEB-1.5" stroke="none" stroke-width="1" fill="none" fill-rule="evenodd" opacity="0.65">
        <g id="文件库—上传文件（弹窗）" transform="translate(-980.000000, -256.000000)" fill="#000000" fill-rule="nonzero">
            <g id="Modal/Default" transform="translate(420.000000, 128.000000)">
                <g id="close-circle-copy" transform="translate(560.000000, 128.000000)">
                    <path d="M8,0 C3.58125,0 0,3.58125 0,8 C0,12.41875 3.58125,16 8,16 C12.41875,16 16,12.41875 16,8 C16,3.58125 12.41875,0 8,0 Z M11.2078125,10.4203125 C11.4265625,10.640625 11.4265625,10.996875 11.20625,11.215625 C11.096875,11.325 10.953125,11.3796875 10.809375,11.3796875 C10.665625,11.3796875 10.5203125,11.325 10.4109375,11.2140625 L8,8.796875 L5.5890625,11.2140625 C5.4796875,11.325 5.334375,11.3796875 5.190625,11.3796875 C5.046875,11.3796875 4.903125,11.325 4.79375,11.215625 C4.5734375,10.996875 4.5734375,10.640625 4.7921875,10.4203125 L7.20625,8 L4.7921875,5.5796875 C4.5734375,5.359375 4.5734375,5.003125 4.79375,4.784375 C5.0140625,4.565625 5.3703125,4.565625 5.5890625,4.7859375 L8,7.203125 L10.4109375,4.784375 C10.6296875,4.5640625 10.9859375,4.5640625 11.20625,4.7828125 C11.4265625,5.0015625 11.4265625,5.3578125 11.2078125,5.578125 L8.79375,8 L11.2078125,10.4203125 Z" id="Shape"></path>
                </g>
            </g>
        </g>
    </g>
</svg>