<?xml version="1.0" encoding="UTF-8"?>
<svg width="12px" height="12px" viewBox="0 0 12 12" version="1.1" xmlns="http://www.w3.org/2000/svg" xmlns:xlink="http://www.w3.org/1999/xlink">
    <!-- Generator: Sketch 50.2 (55047) - http://www.bohemiancoding.com/sketch -->
    <title>delete icon hover</title>
    <desc>Created with Sketch.</desc>
    <defs></defs>
    <g id="delete-icon-hover" stroke="none" stroke-width="1" fill="none" fill-rule="evenodd">
        <path d="M1.60165019,11.9396439 C1.56550172,11.9093409 1.52870775,11.869947 1.49255928,11.830553 C1.53258078,11.869947 1.56550172,11.9093409 1.60165019,11.9396439 Z M1.47241862,11.8660855 C1.43508529,11.8309934 1.3982368,11.7959012 1.36332771,11.7569946 C1.39775194,11.7959012 1.43508529,11.8309934 1.47241862,11.8660855 Z M11.8600634,1.86207802 C11.7692097,1.77065546 11.6371063,1.71969 11.508919,1.71969 L9.04438179,1.71969 L9.04438179,0.947064228 C9.04438179,0.424536976 8.62248643,0 8.10321052,0 L3.89626631,0 C3.3769904,0 2.95509504,0.424536976 2.95509504,0.947064228 L2.95509504,1.71969 L0.478026244,1.71969001 C0.215124862,1.71969001 0,1.93458559 0,2.20070932 C0,2.46683305 0.213558425,2.68172863 0.478026244,2.68172863 L0.899921604,2.68172863 L0.899921604,11.0529358 C0.899921604,11.575463 1.32181696,12 1.84109287,12 L10.2925759,12 C10.8118518,12 11.2337472,11.575463 11.2337472,11.0529358 L11.2337472,2.68172862 L11.508658,2.68172862 C11.7715593,2.68172862 11.999999,2.46683304 11.999999,2.20070931 C12.00026,2.07303297 11.9509171,1.95350059 11.8600634,1.86207802 Z M3.89469987,0.949954025 L8.09903334,0.949954025 L8.09903334,1.72783396 L3.89469987,1.72783396 L3.89469987,0.949954025 Z M10.2912705,11.0516222 L1.84109287,11.0516222 L1.84109287,2.68172862 L3.05874136,2.68172862 L10.2910095,2.68172862 L10.2910095,11.0516222 L10.2912705,11.0516222 Z M5.99347263,4.29370813 C5.72769944,4.29370813 5.51283566,4.50991725 5.51283566,4.77735452 L5.51283566,9.26467883 C5.51283566,9.53211611 5.72769945,9.74832522 5.99347263,9.74832522 C6.25924582,9.74832522 6.47410961,9.5321161 6.47410961,9.26467883 L6.47410962,4.77735452 C6.47410962,4.51017995 6.25924583,4.29370813 5.99347263,4.29370813 Z M3.39004409,4.29370813 C3.12427089,4.29370813 2.90940711,4.50991725 2.90940711,4.77735452 L2.90940711,9.26467883 C2.90940711,9.53211611 3.1242709,9.74832522 3.39004409,9.74832522 C3.65581727,9.74832522 3.87068106,9.5321161 3.87068106,9.26467883 L3.87068108,4.77735452 C3.87068108,4.51017995 3.65555622,4.29370813 3.39004409,4.29370813 Z M8.57027165,4.29370813 C8.30449846,4.29370813 8.08963468,4.50991725 8.08963468,4.77735452 L8.08963468,9.26467883 C8.08963468,9.53211611 8.30449847,9.74832522 8.57027165,9.74832522 C8.83604484,9.74832522 9.05090863,9.5321161 9.05090863,9.26467883 L9.05090863,4.77735452 C9.05090863,4.51017995 8.83604484,4.29370813 8.57027165,4.29370813 Z" id="Shape" fill="#418FEE" fill-rule="nonzero"></path>
    </g>
</svg>