<?xml version="1.0" encoding="UTF-8"?>
<svg width="14px" height="14px" viewBox="0 0 14 14" version="1.1" xmlns="http://www.w3.org/2000/svg" xmlns:xlink="http://www.w3.org/1999/xlink">
    <!-- Generator: Sketch 50.2 (55047) - http://www.bohemiancoding.com/sketch -->
    <title>download_icon</title>
    <desc>Created with Sketch.</desc>
    <defs></defs>
    <g id="Page-1" stroke="none" stroke-width="1" fill="none" fill-rule="evenodd">
        <g id="文控中心-回收站" transform="translate(-559.000000, -197.000000)">
            <g id="操作button" transform="translate(291.000000, 187.000000)">
                <g id="delete_button-icon" transform="translate(255.000000, 0.000000)">
                    <g id="download_icon" transform="translate(12.000000, 9.000000)">
                        <rect id="Rectangle-48-Copy-2" x="0" y="0" width="16" height="16"></rect>
                        <g id="download" transform="translate(1.000000, 1.000000)" fill="#C0C0C0" fill-rule="nonzero">
                            <path d="M6.6328125,11.2546875 C6.7375,11.359375 6.8765625,11.4125 7.015625,11.4125 C7.1546875,11.4125 7.2921875,11.359375 7.3984375,11.2546875 L9.834375,8.81875 C10.0453125,8.6078125 10.0453125,8.265625 9.834375,8.0546875 C9.7328125,7.953125 9.596875,7.896875 9.453125,7.896875 C9.309375,7.896875 9.1734375,7.953125 9.071875,8.0546875 L7.5578125,9.56875 L7.5578125,0.540625 C7.5578125,0.2421875 7.315625,-7.10542736e-15 7.0171875,-7.10542736e-15 C6.71875,-7.10542736e-15 6.4765625,0.2421875 6.4765625,0.540625 L6.4765625,9.56875 L4.9625,8.0546875 C4.7515625,7.84375 4.409375,7.84375 4.2,8.0546875 C3.9890625,8.265625 3.9890625,8.6078125 4.1984375,8.81875 L6.6328125,11.2546875 Z M13.459375,9.00625 C13.1609375,9.00625 12.91875,9.2484375 12.91875,9.546875 L12.91875,12.6 C12.91875,12.7765625 12.775,12.921875 12.596875,12.921875 L1.4015625,12.921875 C1.225,12.921875 1.0796875,12.778125 1.0796875,12.6 L1.0796875,9.5453125 C1.0796875,9.246875 0.8375,9.0046875 0.5390625,9.0046875 C0.240625,9.0046875 0,9.2484375 0,9.5453125 L0,13.028125 C0,13.5640625 0.4359375,13.9984375 0.9703125,13.9984375 L13.0296875,13.9984375 C13.565625,13.9984375 14,13.5625 14,13.028125 L14,9.5453125 C14,9.2484375 13.7578125,9.00625 13.459375,9.00625 Z" id="Shape"></path>
                        </g>
                    </g>
                </g>
            </g>
        </g>
    </g>
</svg>