<?xml version="1.0" encoding="UTF-8"?>
<svg width="12px" height="12px" viewBox="0 0 12 12" version="1.1" xmlns="http://www.w3.org/2000/svg" xmlns:xlink="http://www.w3.org/1999/xlink">
    <!-- Generator: Sketch 50.2 (55047) - http://www.bohemiancoding.com/sketch -->
    <title>swap</title>
    <desc>Created with Sketch.</desc>
    <defs></defs>
    <g id="Page-1" stroke="none" stroke-width="1" fill="none" fill-rule="evenodd">
        <g id="文控中心-回收站" transform="translate(-666.000000, -198.000000)" fill="#C0C0C0" fill-rule="nonzero">
            <g id="操作button" transform="translate(291.000000, 187.000000)">
                <g id="delete_button-icon-copy" transform="translate(361.000000, 0.000000)">
                    <g id="move_icon" transform="translate(12.000000, 9.000000)">
                        <g id="swap" transform="translate(2.500000, 2.578125)">
                            <path d="M0.5296875,3.9 C0.525,3.9 0.5203125,3.9 0.515625,3.8984375 C0.509375,3.8984375 0.5046875,3.896875 0.4984375,3.896875 C0.4953125,3.896875 0.490625,3.8953125 0.4875,3.8953125 C0.48125,3.89375 0.475,3.89375 0.4703125,3.8921875 C0.4671875,3.8921875 0.4640625,3.890625 0.4609375,3.890625 C0.4546875,3.8890625 0.4484375,3.8875 0.44375,3.8859375 C0.440625,3.8859375 0.4375,3.884375 0.434375,3.884375 C0.428125,3.8828125 0.4234375,3.88125 0.4171875,3.8796875 C0.4140625,3.878125 0.4109375,3.878125 0.4078125,3.8765625 C0.403125,3.875 0.396875,3.8734375 0.3921875,3.871875 C0.3890625,3.8703125 0.384375,3.86875 0.38125,3.86875 C0.3765625,3.8671875 0.371875,3.865625 0.3671875,3.8640625 C0.3625,3.8625 0.359375,3.8609375 0.3546875,3.859375 C0.35,3.8578125 0.346875,3.85625 0.3421875,3.8546875 C0.3375,3.853125 0.3328125,3.85 0.328125,3.8484375 C0.325,3.846875 0.321875,3.8453125 0.3171875,3.84375 C0.3125,3.840625 0.3078125,3.8390625 0.303125,3.8359375 C0.3,3.834375 0.296875,3.8328125 0.29375,3.83125 C0.2890625,3.828125 0.2828125,3.825 0.278125,3.821875 C0.275,3.8203125 0.2734375,3.81875 0.2703125,3.8171875 C0.265625,3.8140625 0.259375,3.8109375 0.2546875,3.8078125 C0.2515625,3.80625 0.25,3.8046875 0.246875,3.803125 C0.2421875,3.8 0.2375,3.796875 0.2328125,3.7921875 C0.2296875,3.790625 0.2265625,3.7875 0.225,3.7859375 C0.2203125,3.7828125 0.215625,3.7796875 0.2125,3.775 C0.209375,3.771875 0.2046875,3.76875 0.2015625,3.765625 C0.1984375,3.7625 0.1953125,3.759375 0.1921875,3.7578125 C0.178125,3.7453125 0.165625,3.7328125 0.153125,3.71875 C0.15,3.715625 0.146875,3.7125 0.1453125,3.709375 C0.1421875,3.70625 0.1390625,3.7015625 0.1359375,3.6984375 C0.1328125,3.69375 0.1296875,3.6890625 0.125,3.6859375 C0.1234375,3.6828125 0.1203125,3.6796875 0.11875,3.678125 C0.115625,3.6734375 0.1125,3.66875 0.1078125,3.6640625 C0.10625,3.6609375 0.1046875,3.659375 0.103125,3.65625 C0.1,3.6515625 0.096875,3.6453125 0.09375,3.640625 C0.0921875,3.6375 0.090625,3.6359375 0.0890625,3.6328125 C0.0859375,3.628125 0.0828125,3.621875 0.0796875,3.6171875 C0.078125,3.6140625 0.0765625,3.6109375 0.075,3.6078125 C0.071875,3.603125 0.0703125,3.5984375 0.0671875,3.59375 C0.065625,3.590625 0.0640625,3.5875 0.0625,3.584375 C0.0609375,3.5796875 0.0578125,3.575 0.05625,3.5703125 C0.0546875,3.565625 0.053125,3.5625 0.0515625,3.5578125 C0.05,3.553125 0.0484375,3.55 0.046875,3.5453125 C0.0453125,3.540625 0.04375,3.5359375 0.0421875,3.53125 C0.040625,3.528125 0.0390625,3.5234375 0.0390625,3.5203125 C0.0375,3.515625 0.0359375,3.509375 0.034375,3.5046875 C0.0328125,3.5015625 0.0328125,3.4984375 0.03125,3.4953125 C0.0296875,3.4890625 0.028125,3.484375 0.0265625,3.478125 C0.0265625,3.475 0.025,3.471875 0.025,3.46875 C0.0234375,3.4625 0.021875,3.45625 0.021875,3.4515625 C0.021875,3.4484375 0.0203125,3.4453125 0.0203125,3.4421875 C0.01875,3.4359375 0.01875,3.4296875 0.0171875,3.425 C0.0171875,3.421875 0.015625,3.4171875 0.015625,3.4140625 C0.015625,3.4078125 0.0140625,3.403125 0.0140625,3.396875 C0.0140625,3.3921875 0.0140625,3.3875 0.0125,3.3828125 C0.0125,3.378125 0.0125,3.3734375 0.0109375,3.3703125 C0.009375,3.3515625 0.009375,3.3328125 0.0109375,3.3140625 C0.0109375,3.309375 0.0109375,3.3046875 0.0125,3.3015625 C0.0125,3.296875 0.0125,3.2921875 0.0140625,3.2875 C0.0140625,3.28125 0.015625,3.2765625 0.015625,3.2703125 C0.015625,3.2671875 0.0171875,3.2625 0.0171875,3.259375 C0.01875,3.253125 0.01875,3.246875 0.0203125,3.2421875 C0.0203125,3.2390625 0.021875,3.2359375 0.021875,3.2328125 C0.0234375,3.2265625 0.025,3.2203125 0.025,3.215625 C0.025,3.2125 0.0265625,3.209375 0.0265625,3.20625 C0.028125,3.2 0.0296875,3.1953125 0.03125,3.1890625 C0.0328125,3.1859375 0.0328125,3.1828125 0.034375,3.1796875 C0.0359375,3.175 0.0375,3.16875 0.0390625,3.1640625 C0.040625,3.1609375 0.0421875,3.15625 0.0421875,3.153125 C0.04375,3.1484375 0.0453125,3.14375 0.046875,3.1390625 C0.0484375,3.134375 0.05,3.13125 0.0515625,3.1265625 C0.053125,3.121875 0.0546875,3.11875 0.05625,3.1140625 C0.0578125,3.109375 0.0609375,3.1046875 0.0625,3.1 C0.0640625,3.096875 0.065625,3.09375 0.0671875,3.090625 C0.0703125,3.0859375 0.071875,3.08125 0.075,3.0765625 C0.0765625,3.0734375 0.078125,3.0703125 0.0796875,3.0671875 C0.0828125,3.0625 0.0859375,3.05625 0.0890625,3.0515625 C0.090625,3.0484375 0.0921875,3.046875 0.09375,3.04375 C0.096875,3.0390625 0.1,3.0328125 0.103125,3.028125 C0.1046875,3.025 0.10625,3.0234375 0.1078125,3.0203125 C0.1109375,3.015625 0.1140625,3.0109375 0.11875,3.00625 C0.1203125,3.003125 0.1234375,3 0.125,2.9984375 C0.128125,2.99375 0.13125,2.9890625 0.1359375,2.9859375 C0.1390625,2.9828125 0.1421875,2.978125 0.1453125,2.975 C0.1484375,2.971875 0.1515625,2.96875 0.1546875,2.965625 C0.1609375,2.959375 0.1671875,2.9515625 0.1734375,2.9453125 L2.946875,0.171875 C3.1671875,-0.0484375 3.5234375,-0.0484375 3.7421875,0.171875 C3.9625,0.3921875 3.9625,0.7484375 3.7421875,0.9671875 L1.9296875,2.7796875 L10.43125,2.7796875 C10.7421875,2.7796875 10.99375,3.03125 10.99375,3.3421875 C10.99375,3.653125 10.7421875,3.9046875 10.43125,3.9046875 L0.571875,3.9046875 C0.571875,3.9046875 0.571875,3.9046875 0.571875,3.9046875 C0.5625,3.9046875 0.553125,3.9046875 0.54375,3.9046875 C0.5375,3.9015625 0.5328125,3.9015625 0.5296875,3.9 Z M10.4703125,6.94375 C10.475,6.94375 10.4796875,6.94375 10.484375,6.9453125 C10.490625,6.9453125 10.4953125,6.946875 10.5015625,6.946875 C10.5046875,6.946875 10.509375,6.9484375 10.5125,6.9484375 C10.51875,6.95 10.525,6.95 10.5296875,6.9515625 C10.5328125,6.9515625 10.5359375,6.953125 10.5390625,6.953125 C10.5453125,6.9546875 10.5515625,6.95625 10.55625,6.9578125 C10.559375,6.9578125 10.5625,6.959375 10.565625,6.959375 C10.571875,6.9609375 10.5765625,6.9625 10.5828125,6.9640625 C10.5859375,6.965625 10.5890625,6.965625 10.5921875,6.9671875 C10.596875,6.96875 10.603125,6.9703125 10.6078125,6.971875 C10.6109375,6.9734375 10.615625,6.975 10.61875,6.975 C10.6234375,6.9765625 10.628125,6.978125 10.6328125,6.9796875 C10.6375,6.98125 10.640625,6.9828125 10.6453125,6.984375 C10.65,6.9859375 10.653125,6.9875 10.6578125,6.9890625 C10.6625,6.990625 10.6671875,6.99375 10.671875,6.9953125 C10.675,6.996875 10.678125,6.9984375 10.6828125,7 C10.6875,7.003125 10.6921875,7.0046875 10.696875,7.0078125 C10.7,7.009375 10.703125,7.0109375 10.70625,7.0125 C10.7109375,7.015625 10.7171875,7.01875 10.721875,7.021875 C10.725,7.0234375 10.7265625,7.025 10.7296875,7.0265625 C10.734375,7.0296875 10.740625,7.0328125 10.7453125,7.0359375 C10.7484375,7.0375 10.75,7.0390625 10.753125,7.040625 C10.7578125,7.04375 10.7625,7.046875 10.7671875,7.0515625 C10.7703125,7.053125 10.7734375,7.05625 10.775,7.0578125 C10.7796875,7.0609375 10.784375,7.0640625 10.7875,7.06875 C10.790625,7.071875 10.7953125,7.075 10.7984375,7.078125 C10.8015625,7.08125 10.8046875,7.084375 10.8078125,7.0859375 C10.821875,7.0984375 10.834375,7.1109375 10.846875,7.125 C10.85,7.128125 10.853125,7.13125 10.8546875,7.134375 C10.8578125,7.1375 10.8609375,7.1421875 10.8640625,7.1453125 C10.8671875,7.15 10.8703125,7.1546875 10.875,7.1578125 C10.8765625,7.1609375 10.8796875,7.1640625 10.88125,7.165625 C10.884375,7.1703125 10.8875,7.175 10.8921875,7.1796875 C10.89375,7.1828125 10.8953125,7.184375 10.896875,7.1875 C10.9,7.1921875 10.903125,7.1984375 10.90625,7.203125 C10.9078125,7.20625 10.909375,7.2078125 10.9109375,7.2109375 C10.9140625,7.215625 10.9171875,7.221875 10.9203125,7.2265625 C10.921875,7.2296875 10.9234375,7.2328125 10.925,7.2359375 C10.928125,7.240625 10.9296875,7.2453125 10.9328125,7.25 C10.934375,7.253125 10.9359375,7.25625 10.9375,7.259375 C10.9390625,7.2640625 10.9421875,7.26875 10.94375,7.2734375 C10.9453125,7.278125 10.946875,7.28125 10.9484375,7.2859375 C10.95,7.290625 10.9515625,7.29375 10.953125,7.2984375 C10.9546875,7.303125 10.95625,7.3078125 10.9578125,7.3125 C10.959375,7.315625 10.9609375,7.3203125 10.9609375,7.3234375 C10.9625,7.328125 10.9640625,7.334375 10.965625,7.3390625 C10.9671875,7.3421875 10.9671875,7.3453125 10.96875,7.3484375 C10.9703125,7.3546875 10.971875,7.359375 10.9734375,7.365625 C10.9734375,7.36875 10.975,7.371875 10.975,7.375 C10.9765625,7.38125 10.978125,7.3875 10.978125,7.3921875 C10.978125,7.3953125 10.9796875,7.3984375 10.9796875,7.4015625 C10.98125,7.4078125 10.98125,7.4140625 10.9828125,7.41875 C10.9828125,7.421875 10.984375,7.4265625 10.984375,7.4296875 C10.984375,7.4359375 10.9859375,7.440625 10.9859375,7.446875 C10.9859375,7.4515625 10.9859375,7.45625 10.9875,7.4609375 C10.9875,7.465625 10.9875,7.4703125 10.9890625,7.4734375 C10.990625,7.4921875 10.990625,7.5109375 10.9890625,7.5296875 C10.9890625,7.534375 10.9890625,7.5390625 10.9875,7.5421875 C10.9875,7.546875 10.9875,7.5515625 10.9859375,7.55625 C10.9859375,7.5625 10.984375,7.5671875 10.984375,7.5734375 C10.984375,7.5765625 10.9828125,7.58125 10.9828125,7.584375 C10.98125,7.590625 10.98125,7.596875 10.9796875,7.6015625 C10.9796875,7.6046875 10.978125,7.6078125 10.978125,7.6109375 C10.9765625,7.6171875 10.975,7.6234375 10.975,7.628125 C10.975,7.63125 10.9734375,7.634375 10.9734375,7.6375 C10.971875,7.64375 10.9703125,7.6484375 10.96875,7.6546875 C10.9671875,7.6578125 10.9671875,7.6609375 10.965625,7.6640625 C10.9640625,7.66875 10.9625,7.675 10.9609375,7.6796875 C10.959375,7.6828125 10.9578125,7.6875 10.9578125,7.690625 C10.95625,7.6953125 10.9546875,7.7 10.953125,7.7046875 C10.9515625,7.709375 10.95,7.7125 10.9484375,7.7171875 C10.946875,7.721875 10.9453125,7.725 10.94375,7.7296875 C10.9421875,7.734375 10.9390625,7.7390625 10.9375,7.74375 C10.9359375,7.746875 10.934375,7.75 10.9328125,7.753125 C10.9296875,7.7578125 10.928125,7.7625 10.925,7.7671875 C10.9234375,7.7703125 10.921875,7.7734375 10.9203125,7.7765625 C10.9171875,7.78125 10.9140625,7.7875 10.9109375,7.7921875 C10.909375,7.7953125 10.9078125,7.796875 10.90625,7.8 C10.903125,7.8046875 10.9,7.8109375 10.896875,7.815625 C10.8953125,7.81875 10.89375,7.8203125 10.8921875,7.8234375 C10.8890625,7.828125 10.8859375,7.8328125 10.88125,7.8375 C10.8796875,7.840625 10.8765625,7.84375 10.875,7.8453125 C10.871875,7.85 10.86875,7.8546875 10.8640625,7.8578125 C10.8609375,7.8609375 10.8578125,7.865625 10.8546875,7.86875 C10.8515625,7.871875 10.8484375,7.875 10.8453125,7.878125 C10.8390625,7.884375 10.8328125,7.8921875 10.8265625,7.8984375 L8.0546875,10.675 C7.834375,10.8953125 7.478125,10.8953125 7.259375,10.675 C7.0390625,10.4546875 7.0390625,10.0984375 7.259375,9.8796875 L9.071875,8.0671875 L0.5703125,8.0671875 C0.259375,8.0671875 0.0078125,7.815625 0.0078125,7.5046875 C0.0078125,7.19375 0.259375,6.9421875 0.5703125,6.9421875 L10.4296875,6.9421875 C10.4296875,6.9421875 10.4296875,6.9421875 10.4296875,6.9421875 C10.4390625,6.9421875 10.4484375,6.9421875 10.4578125,6.9421875 C10.4625,6.9421875 10.4671875,6.9421875 10.4703125,6.94375 Z" id="Shape"></path>
                        </g>
                    </g>
                </g>
            </g>
        </g>
    </g>
</svg>