<?xml version="1.0" encoding="UTF-8"?>
<svg width="16px" height="20px" viewBox="0 0 16 20" version="1.1" xmlns="http://www.w3.org/2000/svg" xmlns:xlink="http://www.w3.org/1999/xlink">
    <!-- Generator: Sketch 50.2 (55047) - http://www.bohemiancoding.com/sketch -->
    <title>jpg</title>
    <desc>Created with Sketch.</desc>
    <defs></defs>
    <g id="Page-1" stroke="none" stroke-width="1" fill="none" fill-rule="evenodd">
        <g id="文控中心-回收站" transform="translate(-357.000000, -482.000000)" fill="#FF85C0" fill-rule="nonzero">
            <g id="文件名" transform="translate(338.000000, 259.000000)">
                <g id="jpg" transform="translate(19.000000, 223.000000)">
                    <path d="M15.7863636,4.86363636 L10.8954545,0.203463203 C10.7590909,0.0735930736 10.5727273,0 10.3795455,0 L0.727272727,0 C0.325,0 0,0.30952381 0,0.692640693 L0,18.7012987 C0,19.0844156 0.325,19.3939394 0.727272727,19.3939394 L15.2727273,19.3939394 C15.675,19.3939394 16,19.0844156 16,18.7012987 L16,5.35281385 C16,5.16883117 15.9227273,4.99350649 15.7863636,4.86363636 Z M5.45454545,7.31601732 C5.95681818,7.31601732 6.36363636,7.7034632 6.36363636,8.18181818 C6.36363636,8.66017316 5.95681818,9.04761905 5.45454545,9.04761905 C4.95227273,9.04761905 4.54545455,8.66017316 4.54545455,8.18181818 C4.54545455,7.7034632 4.95227273,7.31601732 5.45454545,7.31601732 Z M12.1818182,13.6796537 L3.81818182,13.6796537 C3.66590909,13.6796537 3.58181818,13.512987 3.675,13.4004329 L5.94318182,10.6471861 C6.01590909,10.5584416 6.15681818,10.5584416 6.22954545,10.6471861 L7.16363636,11.7813853 L8.93181818,9.63419913 C9.00454545,9.54545455 9.14545455,9.54545455 9.21818182,9.63419913 L12.3204545,13.4004329 C12.4181818,13.512987 12.3318182,13.6796537 12.1818182,13.6796537 Z M10.0454545,5.67099567 L10.0454545,1.5974026 L14.3227273,5.67099567 L10.0454545,5.67099567 Z" id="Shape"></path>
                </g>
            </g>
        </g>
    </g>
</svg>